<svg xmlns="http://www.w3.org/2000/svg" fill="none" viewBox="0 0 40 26" width="40" height="26"><path fill="#EE3338" d="M0 0h40v26H0z"/><path fill="#FFFCFC" d="M16.686 7.269c-1.062.311-2.045.734-2.926 1.374-.694.504-1.27 1.114-1.603 1.982-.255-.672-.177-1.279.071-1.87.305-.725.828-1.269 1.444-1.724 1.26-.928 2.694-1.432 4.206-1.72 2.812-.534 5.587-.404 8.3.573 1.007.363 1.944.866 2.723 1.626.724.705 1.192 1.53 1.084 2.595-.016.15-.055.298-.089.474-.052-.046-.085-.061-.095-.086-.37-.897-1.038-1.524-1.822-2.038-1.293-.848-2.734-1.304-4.238-1.552-2.365-.39-4.713-.301-7.055.366"/><path fill="#FFFDFD" d="M13.759 10.34c1.306-.92 2.753-1.416 4.278-1.687 2.655-.472 5.281-.367 7.854.501 1.174.396 2.268.95 3.145 1.868.65.68 1.049 1.469.949 2.451-.016.151-.054.3-.083.452-.045-.014-.076-.015-.082-.028-.703-1.561-2.047-2.338-3.525-2.918-1.988-.78-4.062-1.02-6.183-.904-1.792.099-3.525.444-5.155 1.233a9 9 0 0 0-.924.525c-.815.53-1.494 1.19-1.876 2.167-.255-.673-.178-1.286.08-1.887.318-.745.866-1.292 1.522-1.773"/><path fill="#FFFBFB" d="m20.53 18.778.513.729c-.331 0-.597.013-.86-.008-.08-.006-.166-.093-.226-.167q-.34-.423-.66-.867c-.25-.35-.565-.46-.967-.377v1.392h-.798V16c.829.033 1.653.04 2.473.11.416.035.692.425.712.852.021.436-.184.747-.607.913-.095.037-.194.068-.17-.007zm-1.482-1.28c.163-.01.328-.007.49-.031.197-.03.346-.138.354-.394.007-.239-.118-.389-.306-.4-.417-.024-.835-.007-1.246-.007v.832z"/><path fill="#FFFAFB" d="M24.554 17.117v-1.094h.818v3.407c-.59.168-.851.09-1.222-.376l-1.437-1.81v2.215h-.851v-3.454c.265 0 .525-.016.78.009.087.009.178.11.242.188.536.671 1.067 1.347 1.67 2.007z"/><path fill="#FFFDFD" d="M28.479 16.587h-.994v.774h2.302v.606h-2.31v.952h2.576v.592h-3.51V16h3.432v.587z"/><path fill="#FFFBFC" d="M16.713 19.473c-.089.008-.15 0-.206.011-.549.097-.916-.066-1.083-.588-.029-.087-.217-.18-.336-.186-.47-.021-.941-.017-1.411-.002-.106.003-.286.07-.302.135-.174.704-.714.716-1.343.61.047-.102.091-.21.147-.313.513-.95 1.037-1.895 1.536-2.852.11-.212.25-.246.48-.275.535-.067.809.12 1.03.575.428.879.94 1.723 1.413 2.583.05.09.07.196.075.302m-2.142-2.235-.207-.374-.622 1.228h1.266c-.15-.29-.283-.55-.437-.854"/><path fill="snow" d="M9.41 18.912c.618-.02 1.041-.227 1.227-.717l1.044.195c-.158.447-.488.748-.985.913-.861.286-1.733.282-2.574-.047-.855-.335-1.226-.963-1.097-1.78.112-.71.79-1.263 1.75-1.413.647-.101 1.29-.092 1.911.11.462.15.809.392.977.818-.295.05-.57.111-.85.134a.44.44 0 0 1-.3-.13c-.366-.408-.878-.444-1.422-.36-.503.076-.844.325-.896.743-.036.29-.04.598.042.878.135.457.605.611 1.174.656"/><path fill="#FFFCFC" d="M32.292 18.986v-2.402H30.99V16h3.51v.567h-1.29v2.944h-.918z"/></svg>