<svg xmlns="http://www.w3.org/2000/svg" viewBox="0 0 1667 400">
    <path d="M99.544212,28.77734L2.448462,394.191548h93.441637l21.402829-93.441637h117.976584l21.402829,93.441637h93.441637L252.496184,28.77734H99.544212ZM133.475561,232.887261l42.805659-185.83921,42.805659,185.83921h-85.611318ZM365.766437.588255h88.743423v73.082846h-88.743423V.588255ZM365.766437,101.860162h88.743423v292.331386h-88.743423V101.860162ZM485.829042,101.860162h88.743448v292.331386h-88.743448V101.860162ZM839.752672,28.77734h-139.900423v365.414208h90.830528v-121.630746h49.069895c91.353558,0,143.033551-42.805659,143.033551-120.586658,0-78.825087-51.679993-123.196805-143.033551-123.196805ZM839.752672,204.698201h-49.069895v-105.970157h49.069895c33.409305,0,50.113934,17.748716,50.113934,53.2461,0,34.453345-16.704628,52.724056-50.113934,52.724056ZM1006.79915,28.77734h88.743436v365.414208h-88.743436V28.77734ZM1308.524845,101.860162h88.743387v292.331386h-88.743387V101.860162ZM1662.448462,300.227916c0,61.598366-48.547899,98.661784-121.10875,98.661784-73.604842,0-120.064565-38.629502-120.064565-98.661784h87.699396c2.088079,24.534947,15.66054,36.019379,39.151497,36.019379,19.836795,0,31.843271-7.830319,31.843271-22.446869,0-52.724056-153.474017-8.874358-153.474017-119.542667,0-60.554326,45.937825-97.617794,115.36651-97.617794,67.862601,0,111.712348,34.975389,111.712348,89.787524h-83.523239c0-17.226721-11.484481-27.14507-31.321276-27.14507-18.792707,0-29.755095,7.308275-29.755095,21.402829,0,49.591938,153.473919,10.440393,153.473919,119.542667ZM668.536134,99.772084h6.264248v90.831563h-14.094555c-37.58545,0-59.510312,2.088079-79.869102,8.352314,9.396366-66.296567,39.151521-99.183877,87.699408-99.183877ZM1266.763225,328.939021c12.528471,0,25.578987-2.610123,35.497384-6.78628-8.352314,48.025855-36.541423,77.259004-85.611318,77.259004-54.812135,0-87.699445-36.019379-87.699445-98.661833V101.860162h88.743436v178.530959c0,30.799183,16.182633,48.547899,49.069943,48.547899Z"></path>
</svg>
