<?xml version="1.0" encoding="UTF-8"?>
<svg xmlns="http://www.w3.org/2000/svg" width="40" height="26" viewBox="5.63 4 38.74 24">
  <defs>
    <style>
      .cls-1 {
        fill: #df281d;
      }
      .cls-2 {
        fill: #fff;
      }
    </style>
  </defs>
  <g id="LOGOS">
    <g>
      <path class="cls-1" d="m44.37,26c0,1.11-.89,2-1.99,2H7.62c-1.1,0-1.99-.9-1.99-2V6.01c0-1.11.89-2.01,1.99-2.01h34.75c1.1,0,1.99.9,1.99,2.01v19.99Z"/>
      <path class="cls-2" d="m11.85,14.9c-.22-.21-.39-.33-.71-.33-.79,0-.98.87-.98,1.49,0,.65.19,1.49.95,1.49.34,0,.56-.13.8-.36l-.09,1.57c-.31.13-.58.2-.92.2-1.24,0-2.3-.94-2.3-2.86,0-2.51,1.73-2.94,2.46-2.94.27,0,.53.04.77.13v1.61Z"/>
      <path class="cls-2" d="m15.1,18.87h1.64l-1.13-2.34c.6-.24.87-.79.87-1.41,0-1.48-.95-1.87-2.27-1.87h-1.47v5.61h1.52v-1.5c0-.28-.01-.55-.02-.83h.01s.84,2.32.84,2.32Zm-.83-4.41c.42-.02.71.19.71.68,0,.36-.22.71-.62.71h-.1v-1.39Z"/>
      <polygon class="cls-2" points="17.24 13.26 20.06 13.26 20.06 14.58 18.76 14.58 18.76 15.36 19.93 15.36 19.93 16.69 18.76 16.69 18.76 17.54 20.06 17.54 20.06 18.87 17.24 18.87 17.24 13.26"/>
      <path class="cls-2" d="m20.96,13.26h1.22c1.73,0,2.66,1.09,2.66,2.78,0,2.59-1.63,2.83-2.55,2.83h-1.32v-5.61Zm1.52,4.26c.69,0,.81-.87.81-1.4,0-.61-.12-1.46-.81-1.46v2.86Z"/>
      <rect class="cls-2" x="25.56" y="13.26" width="1.52" height="5.61"/>
      <path class="cls-2" d="m31.98,18.87l-.14-3.53h-.01c-.07.41-.12.82-.19,1.23l-.43,2.3h-1.24l-.53-3.53h-.01c0,.42,0,.83-.02,1.24l-.13,2.28h-1.63l.65-5.61h1.89l.43,2.98h.01c.04-.35.08-.69.15-1.04l.36-1.94h1.87l.54,5.61h-1.58Z"/>
      <path class="cls-2" d="m36.54,18.87l-.11-.72h-1.02l-.13.72h-1.56l1.35-5.61h1.85l1.19,5.61h-1.57Zm-.29-1.91l-.16-1.3c-.04-.35-.07-.71-.11-1.06h-.01c-.04.35-.08.71-.14,1.06l-.21,1.3h.64Z"/>
      <path class="cls-2" d="m38.47,16.98c.21.31.57.63.96.63.21,0,.45-.13.45-.37,0-.13-.04-.23-.12-.31-.07-.08-.16-.15-.25-.22-.3-.23-.56-.45-.75-.71-.19-.26-.31-.57-.31-.98,0-.65.42-1.85,1.71-1.85.36,0,.76.11,1.08.28v1.7c-.18-.28-.54-.6-.89-.6-.18,0-.39.13-.39.34,0,.12.07.22.15.31.08.09.19.16.28.23.32.22.57.43.74.68.18.25.28.55.28.97,0,1.04-.73,1.88-1.79,1.88-.39,0-.78-.08-1.14-.23v-1.76Z"/>
    </g>
  </g>
</svg>
